<svg id="Capa_1" enable-background="new 0 0 512 512" height="512" viewBox="0 0 512 512" width="512" xmlns="http://www.w3.org/2000/svg"><g><g><g clip-rule="evenodd" fill-rule="evenodd"><path d="m326.204 485.322c37.169 0 67.299-30.131 67.299-67.299s-30.131-67.299-67.299-67.299c-12.693 0-24.563 3.516-34.695 9.624-8.841-26.852-34.121-46.239-63.934-46.239-9.2 0-17.968 1.848-25.955 5.191-11.287-21.335-33.705-35.875-59.522-35.875-37.168 0-67.299 30.131-67.299 67.299-37.168 0-67.299 30.131-67.299 67.299s30.131 67.299 67.299 67.299z" fill="#cfdbfa"/><path d="m284.424 199.221c-29.005 0-54.839 18.615-63.933 46.239-10.132-6.108-22.002-9.624-34.695-9.624-30.835 0-57.923 21.036-65.342 51.145 6.793-2.307 14.073-3.557 21.646-3.557 25.817 0 48.234 14.539 59.522 35.875 7.988-3.342 16.755-5.191 25.955-5.191 29.812 0 55.093 19.386 63.934 46.239 10.132-6.108 22.002-9.624 34.695-9.624 18.584 0 35.409 7.533 47.588 19.711h63.409c37.168 0 67.299-30.131 67.299-67.299s-30.131-67.299-67.299-67.299c0-37.168-30.131-67.299-67.299-67.299-25.817 0-48.234 14.54-59.522 35.875-7.99-3.343-16.758-5.191-25.958-5.191z" fill="#e5ecf5"/><path d="m200.128 98.077c-44.254 0-80.13 35.875-80.13 80.13 0 27.108 13.463 51.07 34.064 65.567 20.74-11.113 46.271-10.465 66.428 1.686 8.135-24.708 30.188-43.094 56.883-45.872 1.88-6.807 2.884-13.977 2.884-21.381 0-44.255-35.875-80.13-80.129-80.13z" fill="#fcf5be"/><path d="m119.998 178.206c0 27.108 13.463 51.07 34.064 65.567 4.829-2.588 9.918-4.537 15.139-5.852-16.389-14.67-26.703-35.987-26.703-59.715 0-40.435 29.953-73.869 68.88-79.34-48.108-6.761-91.38 30.445-91.38 79.34z" fill="#faef93"/><path d="m197.058 236.775c-34.588-5.831-68.154 15.911-76.605 50.206 7.564-2.569 15.489-3.743 23.471-3.53 7.356-24.082 27.852-42.426 53.134-46.676z" fill="#cad8eb"/><path d="m189.877 303.335c-12.193-12.295-29.095-19.911-47.778-19.911-37.168 0-67.299 30.131-67.299 67.299-37.168 0-67.299 30.131-67.299 67.299 0 28.223 17.375 52.384 42.01 62.381-41.534-41.89-12.465-114.68 47.79-114.68-.002-48.086 48.877-80.119 92.576-62.388z" fill="#9eb6f4"/></g><g><path d="m140.893 462.821h-15v-15h15zm-30 0h-36.093c-24.703 0-44.8-20.097-44.8-44.799h15c0 16.431 13.368 29.799 29.8 29.799h36.093zm240.145-58.062h-15v-15h15zm-120.536-12.887h-15v-15h15zm-30 0h-15v-15h15zm236.698-43.937h-18.81v-15h18.81c16.432 0 29.8-13.368 29.8-29.8h15c0 24.703-20.097 44.8-44.8 44.8zm-33.809 0h-14.999v-15h14.999zm-60.481-70.95h-15.001v-15h15.001zm-30.001 0h-15v-15h15zm81.029-51.027h-15v-15h15zm-136.181-47.752h-15c0-23.506-19.123-42.63-42.629-42.63v-15c31.776 0 57.629 25.853 57.629 57.63z" fill="#fff"/></g></g><g><path d="m326.204 343.223c-10.667 0-21.162 2.271-30.792 6.62-12.145-26.179-38.411-43.234-67.836-43.234-7.769 0-15.363 1.174-22.659 3.495-13.725-21.237-37.235-34.18-62.818-34.18-38.83 0-70.844 29.739-74.459 67.639-37.9 3.615-67.64 35.628-67.64 74.459 0 41.244 33.555 74.799 74.8 74.799h251.404c41.245 0 74.8-33.555 74.8-74.799 0-41.245-33.555-74.799-74.8-74.799zm0 134.598h-251.404c-32.974 0-59.8-26.826-59.8-59.799 0-32.974 26.826-59.8 59.8-59.8h7.5v-7.5c0-32.974 26.826-59.799 59.799-59.799 22.221 0 42.488 12.217 52.893 31.883l3.205 6.056 6.32-2.645c7.308-3.059 15.065-4.609 23.06-4.609 25.89 0 48.719 16.511 56.81 41.084l2.941 8.933 8.055-4.855c9.276-5.591 19.935-8.547 30.822-8.547 32.974 0 59.8 26.826 59.8 59.8-.001 32.972-26.827 59.798-59.801 59.798z"/><path d="m444.36 228.676c-3.614-37.899-35.629-67.639-74.459-67.639-25.583 0-49.094 12.942-62.818 34.18-7.298-2.322-14.893-3.496-22.659-3.496-29.424 0-55.69 17.056-67.836 43.235-9.629-4.35-20.123-6.62-30.792-6.62-20.823 0-40.866 8.784-54.99 24.099l11.027 10.17c11.292-12.245 27.316-19.269 43.963-19.269 10.89 0 21.548 2.956 30.822 8.547l8.055 4.856 2.941-8.934c8.091-24.574 30.921-41.085 56.81-41.085 7.991 0 15.75 1.551 23.061 4.609l6.32 2.645 3.203-6.056c10.405-19.665 30.673-31.882 52.894-31.882 32.974 0 59.799 26.825 59.799 59.799v7.5h7.5c32.974 0 59.8 26.825 59.8 59.799s-26.826 59.8-59.8 59.8h-33.408v15h33.407c41.245 0 74.8-33.555 74.8-74.8 0-38.829-29.74-70.844-67.64-74.458z"/><path d="m284.988 104.392h59.999v15h-59.999z" transform="matrix(.866 -.5 .5 .866 -13.746 172.486)"/><path d="m204.455 42.597h59.998v15h-59.998z" transform="matrix(.259 -.966 .966 .259 125.374 263.592)"/><path d="m55.269 237.021h59.999v15h-59.999z" transform="matrix(.866 -.5 .5 .866 -110.839 75.396)"/><path d="m64.518 113.88h15v59.998h-15z" transform="matrix(.259 -.966 .966 .259 -85.598 176.206)"/><path d="m126.314 33.347h15v59.999h-15z" transform="matrix(.866 -.5 .5 .866 -13.746 75.394)"/><path d="m112.498 178.206c0 19.751 6.416 38.397 18.554 53.924l11.818-9.238c-10.057-12.863-15.372-28.315-15.372-44.686 0-40.048 32.582-72.629 72.63-72.629 37.997 0 69.822 29.655 72.452 67.513l14.965-1.039c-3.175-45.687-41.573-81.474-87.417-81.474-48.319 0-87.63 39.311-87.63 87.629z"/></g></g></svg>