<svg height="496pt" viewBox="0 0 496 496" width="496pt" xmlns="http://www.w3.org/2000/svg" xmlns:xlink="http://www.w3.org/1999/xlink"><linearGradient id="a" gradientUnits="userSpaceOnUse" x1="248" x2="248" y1="496" y2="0"><stop offset="0" stop-color="#9f2fff"/><stop offset="1" stop-color="#0bb1d3"/></linearGradient><path d="m448 208c-.777344 0-1.550781.089844-2.328125.128906-6.863281-23.167968-28.3125-40.128906-53.671875-40.128906-4.753906 0-9.433594.59375-13.976562 1.769531-12.152344-29.671875-41.496094-49.769531-74.023438-49.769531-10.984375 0-21.449219 2.230469-30.984375 6.246094-2.511719-1.34375-5.105469-2.652344-7.695313-3.910156-4.214843-2.039063-11.097656-5.367188-12.992187-7.441407.535156-2.832031 5.007813-9.429687 7.742187-13.46875 6.808594-10.066406 13.851563-20.464843 8.648438-29.464843-5.253906-9.089844-17.894531-8.160157-30.109375-7.28125-4.792969.34375-12.625.921874-15.3125.023437-.90625-2.703125-.335937-10.519531.015625-15.3125.886719-12.214844 1.816406-24.847656-7.28125-30.109375-8.984375-5.203125-19.390625 1.832031-29.457031 8.628906-4.039063 2.746094-10.644531 7.210938-13.476563 7.753906-2.066406-1.894531-5.394531-8.777343-7.433594-12.984374-5.398437-11.152344-10.984374-22.679688-21.664062-22.679688s-16.265625 11.527344-21.664062 22.6875c-2.039063 4.207031-5.367188 11.089844-7.433594 12.984375-2.832032-.535156-9.4375-5.007813-13.476563-7.742187-10.066406-6.816407-20.480469-13.851563-29.449219-8.640626-9.097656 5.253907-8.175781 17.886719-7.289062 30.109376.351562 4.785156.921875 12.609374.015625 15.3125-2.695313.890624-10.511719.328124-15.296875-.023438-12.214844-.871094-24.855469-1.824219-30.117188 7.28125-5.210937 9 1.832032 19.398438 8.648438 29.464844 2.734375 4.039062 7.199219 10.636718 7.742188 13.46875-1.894532 2.074218-8.769532 5.402344-12.984376 7.441406-11.160156 5.390625-22.695312 10.976562-22.695312 21.65625s11.527344 16.265625 22.679688 21.65625c4.214843 2.046875 11.097656 5.375 12.992187 7.441406-.542969 2.832032-5.007813 9.4375-7.742187 13.476563-6.808594 10.066406-13.851563 20.464843-8.648438 29.464843 5.261719 9.089844 17.894531 8.160157 30.109375 7.28125 4.785156-.359374 12.617187-.929687 15.3125-.023437.90625 2.703125.335937 10.519531-.015625 15.3125-.886719 12.214844-1.816406 24.847656 7.28125 30.109375 9.007812 5.21875 19.390625-1.824219 29.457031-8.628906 4.039063-2.746094 10.644531-7.210938 13.476563-7.753906 2.066406 1.894531 5.394531 8.777343 7.433594 12.984374 5.398437 11.152344 10.984374 22.679688 21.664062 22.679688s16.265625-11.527344 21.664062-22.6875c2.03125-4.199219 5.351563-11.054688 7.425782-12.96875.503906.113281 1.496094.464844 3.039062 1.230469-.050781.808593-.128906 1.609375-.128906 2.425781 0 26.472656 21.527344 48 48 48h224c26.472656 0 48-21.527344 48-48s-21.527344-48-48-48zm-268.351562 29.679688c-3.570313-1.3125-7.191407-1.871094-10.785157-.917969-8.222656 2.191406-12.785156 11.605469-17.605469 21.582031-1.960937 4.046875-5.058593 10.441406-7.265624 12.960938-2.207032-2.519532-5.304688-8.914063-7.265626-12.960938-4.824218-9.976562-9.382812-19.390625-17.605468-21.582031-8.449219-2.265625-17.3125 3.726562-26.671875 10.070312-3.496094 2.359375-8.945313 6.046875-12.074219 7.265625-.535156-3.355468-.046875-10.050781.265625-14.328125.816406-11.195312 1.589844-21.769531-4.527344-27.882812-6.113281-6.117188-16.679687-5.335938-27.890625-4.527344-4.277344.3125-10.964844.800781-14.328125.265625 1.21875-3.136719 4.90625-8.585938 7.273438-12.082031 6.335937-9.359375 12.328125-18.207031 10.070312-26.664063-2.199219-8.222656-11.621093-12.789062-21.589843-17.613281-4.039063-1.96875-10.425782-5.058594-12.953126-7.265625 2.527344-2.207031 8.921876-5.304688 12.96875-7.265625 9.976563-4.832031 19.390626-9.382813 21.59375-17.605469 2.253907-8.457031-3.730468-17.304687-10.074218-26.664062-2.367188-3.496094-6.054688-8.945313-7.273438-12.082032 3.355469-.527343 10.042969-.039062 14.335938.265626 11.203125.808593 21.769531 1.582031 27.882812-4.527344 6.117188-6.121094 5.34375-16.6875 4.527344-27.882813-.3125-4.277343-.800781-10.972656-.265625-14.328125 3.128906 1.21875 8.578125 4.90625 12.074219 7.265625 9.367187 6.34375 18.246094 12.367188 26.671875 10.070313 8.222656-2.191406 12.785156-11.605469 17.605469-21.582032 1.960937-4.046874 5.058593-10.441406 7.265624-12.960937 2.207032 2.519531 5.304688 8.914063 7.265626 12.960937 4.824218 9.976563 9.382812 19.390626 17.605468 21.582032 8.457032 2.289062 17.3125-3.726563 26.671875-10.070313 3.496094-2.359375 8.945313-6.046875 12.074219-7.265625.535156 3.355469.046875 10.050782-.265625 14.328125-.816406 11.195313-1.589844 21.769531 4.527344 27.882813 6.121093 6.125 16.699219 5.34375 27.890625 4.527344 4.269531-.3125 10.964844-.808594 14.328125-.265626-1.21875 3.136719-4.90625 8.585938-7.273438 12.082032-6.335937 9.359375-12.328125 18.207031-10.0625 26.671875 2.054688 7.6875 10.453125 12.183593 19.695313 16.679687-19.65625 14.589844-32.464844 37.886719-32.464844 64.183594 0 2.6875.214844 5.359375.488281 8.023438-.167969 0-.320312-.023438-.488281-.023438-19.984375 0-37.136719 12.28125-44.351562 29.679688zm268.351562 50.320312h-224c-17.648438 0-32-14.351562-32-32s14.351562-32 32-32 32 14.351562 32 32h16c0-20.441406-12.863281-37.886719-30.902344-44.800781-.65625-3.6875-1.097656-7.421875-1.097656-11.199219 0-35.289062 28.710938-64 64-64 28.265625 0 53.519531 18.960938 61.40625 46.113281l2.523438 8.671875 8.308593-3.554687c5.007813-2.140625 10.3125-3.230469 15.761719-3.230469 22.054688 0 40 17.945312 40 40 0 7.367188-2.015625 14.558594-5.832031 20.816406l13.65625 8.34375c5.34375-8.769531 8.175781-18.855468 8.175781-29.160156 17.648438 0 32 14.351562 32 32s-14.351562 32-32 32zm-304-224c-44.113281 0-80 35.886719-80 80s35.886719 80 80 80 80-35.886719 80-80-35.886719-80-80-80zm0 144c-35.289062 0-64-28.710938-64-64s28.710938-64 64-64 64 28.710938 64 64-28.710938 64-64 64zm122.214844 140.902344-18.214844-27.328125-18.214844 27.328125c-3.785156 5.683594-5.785156 12.28125-5.785156 19.097656 0 13.230469 10.769531 24 24 24s24-10.769531 24-24c0-6.816406-2-13.414062-5.785156-19.097656zm-18.214844 27.097656c-4.40625 0-8-3.585938-8-8 0-3.648438 1.070312-7.175781 3.097656-10.214844l4.902344-7.359375 4.902344 7.359375c2.027344 3.039063 3.097656 6.566406 3.097656 10.214844 0 4.414062-3.59375 8-8 8zm136-14.425781-18.214844 27.328125c-3.785156 5.683594-5.785156 12.28125-5.785156 19.097656 0 13.230469 10.769531 24 24 24s24-10.769531 24-24c0-6.816406-2-13.414062-5.785156-19.097656zm0 54.425781c-4.40625 0-8-3.585938-8-8 0-3.648438 1.070312-7.175781 3.097656-10.214844l4.902344-7.359375 4.902344 7.359375c2.027344 3.039063 3.097656 6.566406 3.097656 10.214844 0 4.414062-3.59375 8-8 8zm-256-46.425781-18.214844 27.328125c-3.785156 5.683594-5.785156 12.28125-5.785156 19.097656 0 13.230469 10.769531 24 24 24s24-10.769531 24-24c0-6.816406-2-13.414062-5.785156-19.097656zm0 54.425781c-4.40625 0-8-3.585938-8-8 0-3.648438 1.070312-7.175781 3.097656-10.214844l4.902344-7.359375 4.902344 7.359375c2.027344 3.039063 3.097656 6.566406 3.097656 10.214844 0 4.414062-3.59375 8-8 8zm344-6.425781-18.214844 27.328125c-3.785156 5.683594-5.785156 12.28125-5.785156 19.097656 0 13.230469 10.769531 24 24 24s24-10.769531 24-24c0-6.816406-2-13.414062-5.785156-19.097656zm0 54.425781c-4.40625 0-8-3.585938-8-8 0-3.648438 1.070312-7.175781 3.097656-10.214844l4.902344-7.359375 4.902344 7.359375c2.027344 3.039063 3.097656 6.566406 3.097656 10.214844 0 4.414062-3.59375 8-8 8zm-176-46.425781-18.214844 27.328125c-3.785156 5.683594-5.785156 12.28125-5.785156 19.097656 0 13.230469 10.769531 24 24 24s24-10.769531 24-24c0-6.816406-2-13.414062-5.785156-19.097656zm0 54.425781c-4.40625 0-8-3.585938-8-8 0-3.648438 1.070312-7.175781 3.097656-10.214844l4.902344-7.359375 4.902344 7.359375c2.027344 3.039063 3.097656 6.566406 3.097656 10.214844 0 4.414062-3.59375 8-8 8zm-272-184h16v16h-16zm144 48h16v16h-16zm296 24h-16v-16h16zm-416 80h16v16h-16zm0 0" fill="url(#a)"/></svg>